<?xml version="1.0" encoding="utf-8"?>
<!-- Generator: Adobe Illustrator 19.0.0, SVG Export Plug-In . SVG Version: 6.00 Build 0)  -->
<svg version="1.1" id="Layer_1" xmlns="http://www.w3.org/2000/svg" xmlns:xlink="http://www.w3.org/1999/xlink" x="0px" y="0px"
	 viewBox="0 0 500 500" style="enable-background:new 0 0 500 500;" xml:space="preserve">
<path id="XMLID_70_" d="M414.6,299.3l-29.5-109.4c0-33.4-60.3-60.4-134.6-60.4c-74.4,0-134.6,27-134.6,60.4L86.3,299.3
	c-2,3.7-3.1,7.5-3.1,11.4c0,33.4,74.9,60.4,167.2,60.4c92.4,0,167.2-27,167.2-60.4C417.7,306.8,416.6,303,414.6,299.3z M213.6,320.7
	c-3.1-1.5-5.7-3.7-7.4-6.8c-1.2-2.1-1.8-4.3-2-6.7c-0.1-0.7-0.1-1.4-0.1-2.1c0.1-4.3,1.1-8.4,3.5-12.1c0.7-1,1.5-2,2.6-2.7
	c2.1-1.4,4.5-1.3,6.6,0.2c2.3,1.6,4,3.8,5.6,6.1c1.9,2.8,3.4,5.9,4.4,9.2c1,3.5,0.9,6.9-0.6,10.3C223.9,321.1,218.5,323,213.6,320.7
	z M224.3,279.7c1.7-4.8,4.3-8.9,8.2-12.2c2-1.7,4.3-2.4,6.8-1.9c1.8,0.4,2.9,1.6,3.8,3c1.4,2.1,2.3,4.5,2.9,6.9
	c0.9,3.5,1.8,7.1,2,10.8c0.3,4.3-0.7,8.3-3.3,11.8c0,0,0,0,0,0.1c0,0-0.1,0.1-0.1,0.1c0,0-0.1,0.1-0.1,0.1c0,0-0.1,0.1-0.1,0.1
	c-0.4,0.5-0.7,0.9-1.1,1.2c-0.2,0.2-0.6,0.5-1,0.8c-0.5,0.4-1,0.7-1.5,0.9c-0.3,0.1-0.6,0.3-0.9,0.4c0,0,0,0,0,0l0,0
	c-3.2,1.2-6.7,0.8-9.6-1.3c-3.5-2.5-5.5-6-6.6-10C222.7,287,223,283.3,224.3,279.7z M278.5,347.9c-1.6,2.3-3.9,3.6-6.6,4.3
	c-2.4,0.6-5.9,1-8.2,1c-2.8-0.1-5.3-0.4-7.8-1.1c-2.7-0.7-5.5-0.8-8.4-0.6c-3.4,0.3-6.7,1.2-10,2c-3.5,0.9-6.9,0.8-10.2-0.6
	c-5-2.2-8.3-6-8.9-11.5c-0.7-6.1,1.3-11.4,6.1-15.5c2.1-1.8,4.2-3.7,6.1-5.8c2.2-2.6,4.1-5.4,5.8-8.3c2.3-4.1,5.7-7,10.3-8.3
	c5.2-1.4,10.5,0.6,13.5,5.1c2.5,3.8,5.4,7.2,8.5,10.5c2.4,2.5,4.9,5,7.3,7.5c2.1,2.2,3.9,4.6,4.6,7.6
	C281.8,339.2,281.3,343.8,278.5,347.9z M253.2,282.5c0.6-2.6,1.1-5.3,1.8-7.9c0.6-2.1,1.4-4.1,2.6-6c1.9-2.9,4.3-3.8,7.6-2.7
	c2.1,0.7,3.8,1.9,5.3,3.5c3.4,3.7,5.6,8,6.8,12.9c1.1,4.5,0.2,8.8-2,12.9c-0.9,1.7-2.1,3.1-3.5,4.4c-0.1,0.1-0.2,0.2-0.4,0.4
	c-0.3,0.2-0.6,0.4-0.8,0.6c0,0-0.1,0-0.1,0.1c-3.5,2.4-7.2,2.8-11,0.6c-2.9-1.6-4.6-4.3-5.6-7.3
	C252.4,290.2,252.4,286.4,253.2,282.5z M296.3,309.3c-0.8,4.1-3,7.3-6.3,9.7c-1.5,1.1-3.1,2-5,2.4c-2.7,0.6-5.1,0-7.2-1.6
	c-2-1.5-3.1-3.5-3.7-5.9c-0.8-3.2-0.5-6.4,0.6-9.6c1.6-4.5,4-8.5,7.2-12c1.1-1.2,2.4-2.2,3.9-2.8c1.9-0.7,3.7-0.3,5.3,0.9
	c2,1.6,3.1,3.7,4.1,6c1.1,2.7,1.6,5.6,1.7,8.5C296.6,306.5,296.5,307.9,296.3,309.3z M250.5,245.5c-66.4,0-120.3-21.5-120.3-48.1
	c0-26.6,53.9-48.1,120.3-48.1s120.3,21.5,120.3,48.1C370.8,223.9,316.9,245.5,250.5,245.5z"/>
</svg>
