<?xml version="1.0" encoding="utf-8"?>
<!-- Generator: Adobe Illustrator 19.0.0, SVG Export Plug-In . SVG Version: 6.00 Build 0)  -->
<svg version="1.1" id="Layer_1" xmlns="http://www.w3.org/2000/svg" xmlns:xlink="http://www.w3.org/1999/xlink" x="0px" y="0px"
	 viewBox="0 0 500 500" style="enable-background:new 0 0 500 500;" xml:space="preserve">
<g id="XMLID_22_">
	<path id="XMLID_61_" d="M102.3,235.7c0.2-13.8,3.4-26.7,11-38.4c2.2-3.3,4.8-6.3,8.2-8.5c6.8-4.5,14.3-4.1,21.1,0.6
		c7.4,5.2,12.8,12.1,17.8,19.4c6.2,9.1,10.9,18.8,13.9,29.4c3.1,11.1,2.8,22.1-2,32.7c-7.1,15.6-24.2,21.9-39.6,14.4
		c-10-4.9-18.1-11.9-23.6-21.7c-3.7-6.6-5.7-13.8-6.3-21.4C102.5,240.1,102.4,237.9,102.3,235.7z"/>
	<path id="XMLID_60_" d="M397.3,236c-0.6,4.4-0.9,8.9-1.7,13.2c-2.5,13-9.4,23.2-20.1,30.9c-4.9,3.5-10,6.5-16,7.7
		c-8.5,1.8-16.2,0.1-23-5.1c-6.2-4.7-9.9-11.2-11.8-18.7c-2.6-10.3-1.6-20.4,1.9-30.4c5-14.3,12.7-27,23-38.1
		c3.5-3.8,7.5-7,12.5-8.8c6.2-2.2,11.8-1,16.9,2.9c6.3,5,10,11.8,13,19.1C395.5,217.5,396.9,226.8,397.3,236z"/>
	<path id="XMLID_59_" d="M227.4,219.2c1.2-1.1,2.3-2.4,3.5-3.9c0.1-0.2,0.3-0.3,0.4-0.5c0.1-0.1,0.2-0.2,0.2-0.3
		c0.1-0.1,0.2-0.2,0.2-0.3c0-0.1,0.1-0.1,0.1-0.2c8.3-11.2,11.2-24,10.4-37.7c-0.7-11.6-3.4-23-6.4-34.2c-2.1-7.8-4.9-15.3-9.3-22.1
		c-3-4.5-6.6-8.5-12.2-9.6c-8.2-1.7-15.5,0.7-21.8,5.9c-12.4,10.5-20.8,23.7-26.2,38.9c-4,11.4-5.1,23-1.7,34.8
		c3.7,12.8,10,23.8,21.1,31.8c9.2,6.6,20.6,8.1,30.6,4.1l0,0c0,0,0,0,0,0c0.9-0.4,1.8-0.8,2.7-1.2c1.7-0.8,3.3-1.7,4.9-2.9
		C225.5,220.8,226.7,219.9,227.4,219.2z"/>
	<path id="XMLID_29_" d="M335.1,163.5c-3.6-15.5-10.9-29.3-21.6-41.1c-4.6-5.1-10.1-9-16.7-11.1c-10.6-3.4-18.2-0.7-24.1,8.7
		c-3.8,5.9-6.6,12.3-8.3,19c-2.2,8.3-3.9,16.7-5.7,25.1c-2.6,12.2-2.5,24.3,1.6,36.3c3.3,9.8,8.8,18.1,18,23.4
		c11.9,6.8,23.8,5.6,34.9-1.9c0.1-0.1,0.3-0.1,0.4-0.2c0.8-0.5,1.7-1,2.6-1.8c0.7-0.6,1-0.9,1.3-1.2c4.5-4,8.2-8.7,11.1-14
		C335.6,191.6,338.5,178,335.1,163.5z"/>
	<path id="XMLID_64_" d="M345.9,329.1c-2.4-9.6-8-17.3-14.8-24.3c-7.7-8-15.5-15.9-23.2-24c-9.9-10.4-19.1-21.4-27.2-33.3
		c-9.7-14.4-26.4-20.7-43-16.2c-14.7,3.9-25.4,13.2-32.8,26.3c-5.3,9.4-11.3,18.3-18.5,26.5c-5.9,6.7-12.5,12.7-19.4,18.5
		c-15.3,12.9-21.7,29.6-19.4,49.2c2.1,17.5,12.4,29.6,28.5,36.6c10.5,4.6,21.5,4.7,32.5,2c10.5-2.6,21-5.6,31.8-6.4
		c9-0.7,17.8-0.5,26.6,1.8c7.9,2.1,16,3.1,24.9,3.4c7.4,0.1,18.5-1,26.1-3.1c8.5-2.3,15.9-6.4,20.9-13.8
		C348.1,359,349.6,344.4,345.9,329.1z M249.8,364.5c-3.7-2.2-50.1-30.5-40.3-58.1c7.6-21.5,31.6-19.9,40.3-3.6
		c8.7-16.4,32.7-18,40.3,3.6C299.9,334,253.5,362.3,249.8,364.5z"/>
</g>
</svg>
